<?xml version="1.0" encoding="UTF-8"?>
<svg id="Vrstva_1" xmlns="http://www.w3.org/2000/svg" version="1.1" viewBox="0 0 500 255.12">
  <!-- Generator: Adobe Illustrator 29.6.1, SVG Export Plug-In . SVG Version: 2.1.1 Build 9)  -->
  <defs>
    <style>
      .st0 {
        fill: #1d1d1b;
      }

      .st1 {
        fill: #fff;
      }
    </style>
  </defs>
  <path class="st1" d="M.09,229.82c41.59,0,41.59,18,83.18,18s41.59-18,83.18-18,41.59,18,83.18,18,41.59-18,83.18-18,41.59,18,83.19,18,41.59-18,83.19-18"/>
  <path class="st0" d="M.09,228.82c41.67,0,41.67,18,83.33,18s41.67-18,83.33-18,41.67,18,83.33,18,41.67-18,83.33-18,41.67,18,83.34,18,41.67-18,83.34-18V-.82H.09v229.64H.09Z"/>
  <path class="st0" d="M0-67.88c25,0,25,14,50,14s25-14,50-14,25,14,50,14,25-14,50-14,25,14,50,14,25-14,50-14,25,14,50,14,25-14,50-14,25,14,50.01,14,25-14,50.01-14v-234H-1L0-67.88Z"/>
</svg>